/* XPM */
static char *astrocalc[]={
"32 32 5 1",
". c None",
"c c #000000",
"b c #000080",
"a c #ff0000",
"# c #ffffff",
"................................",
"......................##........",
".....................####..##...",
"......................##...##...",
"................................",
"........................aa......",
"........................aa..##..",
"...........................####.",
"............................##..",
"...................bb...........",
".................bbbb...........",
"...............bbbbbb...........",
".......bb....bbbbbbbb...........",
".....bb....bbbbbbbbbb...........",
"...bb.bb.bbbbbbbbbb.............",
".......bbbbbbbbbb...............",
".....bbbbbbbbbb.................",
".....bbbbbbbb...................",
"...bbbbbbbbcccc.................",
"..bbbbbbb..ccc.c................",
".....bb....ccc..c...............",
"...........ccc...ccc............",
"..........c.c.c..ccc............",
"..........c.c.c..cc.............",
".........c..c..c................",
".........c..c..c................",
"........c...c...c...............",
"........c...c...c...............",
".......c....c....c..............",
".......c....c....c..............",
"......c.....c.....c.............",
".....ccc...ccc...ccc............"};
