/* XPM */
static char * toolMagnitude_xpm[] = {
"16 16 3 1",
" 	c None",
".	c #F9F9F9",
"+	c #000000",
"                ",
"   .            ",
"  ...           ",
"  ...           ",
"   .            ",
"     +++        ",
"     ++         ",
"     + ++       ",
"       ++ +     ",
"         ++     ",
"        +++     ",
"                ",
"            ..  ",
"            ..  ",
"                ",
"                "};
